<?xml version="1.0" encoding="utf-8"?>
<!-- Generator: Adobe Illustrator 19.0.0, SVG Export Plug-In . SVG Version: 6.00 Build 0)  -->
<svg version="1.1" id="layer" xmlns="http://www.w3.org/2000/svg" xmlns:xlink="http://www.w3.org/1999/xlink" x="0px" y="0px"
	 viewBox="-153 -46 652 652" style="enable-background:new -153 -46 652 652;" xml:space="preserve">
<style type="text/css">
	.st0{fill:#A1B1BE;}
</style>
<path class="st0" d="M-7.6,324.6l9.4-42.2l-9.7-50.2H-45l-15.8,9.2h37.1 M-115.9,232.3l-15.8,9.2h36.6l16.5,82.4l9.2-42.3l-9.9-49.4
	 M26.7,232.3l-15.8,9.2h36L11.7,359.2l0.1,0.2l15.6-9.3l35.3-117.9 M-61.1,359.2l15.7-9.1l8.7-38.6l-6.8-30.7 M96,254
	c3.1-3,8.1-8.2,15.8-11.7v-51.7H77l-15.8,9.3H96L96,254L96,254z M170.8,237.5c-7-5.9-16.5-8.4-25.1-8.4c-14.5,0-23.8,6.3-29.6,11.5
	c4-1.3,8.5-2.2,13.8-2.2c8.6,0,18.1,2.5,25.1,8.4c10.4,8.8,12.2,19.9,12.2,35.2v77.4l15.8-9.3v-77.4
	C183,257.3,181.2,246.3,170.8,237.5 M114.8,267.9c-6.1,0-11.3,2.9-14.2,6.8c-4.5,6.1-4.5,15.8-4.5,25.9v58.7l15.8-9.3v-58.7
	c0-8.9,0.2-17.4,3.3-23.5H114.8L114.8,267.9z M209.4,190.5l-15.8,9.3H228v26.9l15.8-9.2v-26.9 M209.4,232.1l-15.8,9.2H228v118.1
	l15.8-9.3V232.1 M270.8,234.8h-1.4l-15.8,9.2h17.2 M320.9,309.3v-43.8h-15.8v53c-0.2,7.2-0.2,13.3,9,13.3l12.4-0.4v27.1l15.8-9.2
	v-27.1l-12.5,0.5C320.7,322.6,320.7,316.5,320.9,309.3 M321.2,235v-36.8h-34.6l-15.8,9.2h34.6v36.8h22.8v21.2l15.8-9.3V235
	 M393.3,237.7c7,0,27.4,0.7,42.5,17c15.4,16.5,16.3,39.5,16.7,52.8l15.8-9.2c-0.4-13.3-1.3-36.4-16.7-52.8
	c-15.1-16.3-35.5-17-42.5-17c-17.6,0-30.6,5.3-39.9,13.3C376,239.2,384,237.7,393.3,237.7 M395.1,336.8c11.5,0,18.4-4.6,23-10
	c-2.2,0.4-4.6,0.8-7.3,0.8c-14.7,0-23-9.1-25.8-20.1h-16.9C368,322.1,376.3,336.8,395.1,336.8"/>
<path class="st0" d="M375.5,270.2c-4.8,5.2-5.9,10.6-7,15.6h48.1c-0.4-2.8-0.9-6-2.1-9.2h-30.3c1-4.3,2.1-9,5.5-13.6
	C383.2,263.8,378.4,267.1,375.5,270.2 M442,307.4h-2.4L425,316l26.2,13.3c-4.2,6.7-9.8,14.2-17.4,20.3c-1.5,1.2-1.6,1.3-3.3,2.5
	c1.2-0.3,3.9-1.3,6.2-2.5c5.8-3,10.5-6.1,17.8-13.4c6.7-6.7,11.7-15,12.5-16.1L442,307.4L442,307.4z"/>
</svg>
